<?xml version="1.0" standalone="no"?>
<!DOCTYPE svg PUBLIC "-//W3C//DTD SVG 20010904//EN"
 "http://www.w3.org/TR/2001/REC-SVG-20010904/DTD/svg10.dtd">
<svg version="1.0" xmlns="http://www.w3.org/2000/svg"
 width="128.000000pt" height="128.000000pt" viewBox="0 0 128.000000 128.000000"
 preserveAspectRatio="xMidYMid meet">

<g transform="translate(0.000000,128.000000) scale(0.100000,-0.100000)"
fill="#000000" stroke="none">
<path d="M242 1172 c-20 -20 -21 -26 -9 -35 8 -7 19 -21 25 -32 6 -11 12 -15
12 -8 0 7 9 21 21 31 l20 20 -23 24 -23 24 -23 -24z m36 -33 c-16 -10 -33 5
-23 21 5 8 11 8 21 -1 12 -10 12 -14 2 -20z"/>
<path d="M665 1185 c-42 -16 -62 -31 -54 -40 3 -2 23 4 44 15 24 12 58 20 90
20 l50 -1 -31 -13 c-47 -21 -56 -54 -24 -86 l20 -20 -42 0 c-24 0 -71 -6 -106
-14 -68 -14 -68 -14 -47 37 4 9 3 17 -3 17 -19 0 -34 -68 -27 -121 6 -45 5
-52 -14 -65 -33 -23 -28 -70 9 -93 18 -10 42 -42 60 -79 17 -33 49 -79 71
-102 22 -23 39 -43 37 -44 -37 -28 -53 -34 -64 -25 -8 7 -24 3 -50 -12 -59
-34 -73 -49 -102 -106 l-25 -53 -23 21 c-25 23 -47 20 -88 -12 -30 -24 -33
-49 -10 -84 13 -20 14 -28 4 -40 -8 -9 -21 -13 -32 -9 -30 9 -75 -14 -88 -46
-17 -41 -4 -55 27 -30 31 24 39 25 47 4 4 -9 -5 -24 -22 -39 -25 -22 -26 -24
-8 -31 10 -4 30 -3 44 2 23 8 33 22 62 84 13 28 32 15 84 -60 51 -74 53 -75
94 -74 23 0 42 -3 42 -8 0 -5 107 -7 238 -6 l237 3 3 190 c2 172 0 193 -17
221 -23 38 -106 95 -126 88 -8 -3 -28 0 -44 7 l-29 13 44 49 c25 28 57 76 71
107 17 34 38 63 55 73 32 18 39 66 13 87 -10 8 -14 31 -13 75 1 82 -28 138
-95 179 -43 26 -59 30 -135 33 -60 2 -99 -2 -127 -12z m193 -45 c23 -16 49
-44 58 -61 l16 -32 -32 7 c-18 3 -50 6 -71 6 l-39 0 20 20 c24 24 25 47 3 72
-25 28 -1 21 45 -12z m-54 -12 c16 -27 -14 -54 -43 -39 -24 13 -27 31 -9 49
16 16 38 12 52 -10z m94 -109 c42 -14 40 -24 -5 -41 -75 -26 -343 -9 -343 22
0 34 263 49 348 19z m65 -95 c33 -27 35 -62 7 -136 -39 -104 -131 -198 -193
-198 -64 0 -147 86 -194 199 -32 79 -30 111 10 136 28 18 49 20 187 20 144 0
158 -2 183 -21z m-413 -60 c0 -36 -8 -42 -28 -22 -15 15 -15 41 0 56 17 17 28
5 28 -34z m490 6 c0 -19 -27 -47 -36 -37 -3 3 -2 21 2 41 5 30 9 34 20 25 8
-6 14 -19 14 -29z m-278 -297 c10 -3 31 0 48 5 25 9 30 8 30 -4 0 -16 -50 -84
-62 -84 -10 0 -68 80 -68 93 0 5 8 6 18 2 9 -4 25 -9 34 -12z m-124 -121 c3
-95 1 -102 -17 -102 -17 0 -19 8 -20 95 -2 99 2 119 22 112 8 -2 13 -39 15
-105z m312 3 c0 -87 -3 -105 -15 -105 -12 0 -15 18 -15 105 0 87 3 105 15 105
12 0 15 -18 15 -105z m-382 -65 c-28 -23 -37 -24 -44 -5 -4 8 6 25 23 39 l28
25 -32 7 c-18 3 -33 8 -33 11 0 15 25 45 48 57 l27 14 3 -64 c3 -58 0 -67 -20
-84z m461 104 c20 -25 21 -39 21 -215 l0 -189 -40 0 -40 0 0 225 c0 220 1 225
19 215 11 -5 29 -22 40 -36z m-320 -42 c18 -24 22 -26 41 -14 18 11 28 11 52
1 25 -10 31 -10 42 7 8 10 23 30 35 44 l20 25 1 -82 0 -83 -37 -1 c-48 -1 -34
-6 40 -14 l57 -6 0 -120 0 -119 -179 0 -179 0 -1 119 -1 119 52 6 c29 3 69 8
88 9 19 2 7 5 -27 5 l-63 2 0 88 1 87 19 -23 c11 -13 28 -36 39 -50z m-194
-32 c-15 -17 -16 -24 -7 -45 13 -28 23 -30 54 -14 16 9 19 8 16 -3 -6 -17 -51
-33 -72 -25 -9 4 -21 18 -28 31 -9 20 -8 30 6 51 9 14 24 25 33 25 14 0 14 -2
-2 -20z m-76 -32 c34 -60 -39 -108 -89 -58 -27 27 -25 44 7 70 34 26 63 22 82
-12z m22 -71 c-10 -9 -11 -8 -5 6 3 10 9 15 12 12 3 -3 0 -11 -7 -18z m129
-57 c0 -38 -2 -70 -5 -70 -2 0 -23 27 -45 60 l-41 60 30 0 c16 0 33 5 36 10
16 26 25 4 25 -60z m0 -127 c0 -20 -31 -44 -54 -41 -13 2 -40 32 -75 81 -50
74 -52 79 -35 92 11 7 28 20 39 28 19 15 23 11 72 -66 29 -45 53 -87 53 -94z
m-170 154 c0 -2 -14 -14 -31 -26 -25 -18 -33 -20 -39 -10 -11 16 17 38 48 39
12 0 22 -1 22 -3z m-96 -43 c31 -31 10 -94 -32 -94 -13 0 -12 3 6 16 27 19 28
36 2 59 -18 17 -21 17 -45 1 -29 -19 -33 -11 -8 16 20 22 56 23 77 2z"/>
<path d="M687 914 c-14 -14 -7 -35 11 -32 9 2 17 10 17 17 0 16 -18 25 -28 15z"/>
<path d="M836 905 c-6 -17 16 -31 33 -21 13 9 2 36 -14 36 -7 0 -16 -7 -19
-15z"/>
<path d="M710 752 c0 -6 7 -18 16 -26 28 -29 114 -14 114 19 0 11 -5 10 -20
-5 -26 -26 -58 -25 -87 2 -13 12 -23 17 -23 10z"/>
<path d="M351 1119 c-12 -16 -28 -29 -36 -29 -9 0 0 -15 23 -38 l37 -38 13 23
c7 13 16 23 20 23 4 0 13 4 20 8 9 6 4 18 -21 45 l-34 36 -22 -30z m42 -58
c-21 -20 -21 -20 -39 0 -16 18 -16 20 1 39 l19 21 20 -20 20 -21 -21 -19z"/>
<path d="M240 1040 l-25 -25 25 -25 25 -25 25 25 25 25 -25 25 -25 25 -25 -25z
m39 -37 c-15 -18 -34 -1 -25 22 5 14 9 15 21 5 12 -10 13 -16 4 -27z"/>
</g>
</svg>
